0
SECTION
2
HEADER
9
$INSUNITS
70
4
9
$ACADVER
1
AC1014
9
$HANDSEED
5
FFFF
0
ENDSEC
0
SECTION
2
TABLES
0
TABLE
2
VPORT
5
8
100
AcDbSymbolTable
0
ENDTAB
0
TABLE
2
LTYPE
5
5
100
AcDbSymbolTable
0
LTYPE
5
14
100
AcDbSymbolTableRecord
100
AcDbLinetypeTableRecord
2
BYBLOCK
70
0
0
LTYPE
5
15
100
AcDbSymbolTableRecord
100
AcDbLinetypeTableRecord
2
BYLAYER
70
0
0
LTYPE
5
16
100
AcDbSymbolTableRecord
100
AcDbLinetypeTableRecord
2
DASHED
70
0
3
Dashed __ __ __ __ __ __ __ __ __ __ __ __ __ _
72
65
73
2
40
0.75
49
0.5
74
0
49
-0.25
74
0
0
ENDTAB
0
TABLE
2
LAYER
5
2
100
AcDbSymbolTable
70
3
0
LAYER
5
50
100
AcDbSymbolTableRecord
100
AcDbLayerTableRecord
2
1
70
0
62
7
6
DASHED
0
LAYER
5
51
100
AcDbSymbolTableRecord
100
AcDbLayerTableRecord
2
0
70
0
62
7
6
CONTINUOUS
0
ENDTAB
0
TABLE
2
STYLE
5
3
100
AcDbSymbolTable
70
1
0
STYLE
5
11
100
AcDbSymbolTableRecord
100
AcDbTextStyleTableRecord
2
STANDARD
70
0
0
ENDTAB
0
TABLE
2
VIEW
5
6
100
AcDbSymbolTable
70
0
0
ENDTAB
0
TABLE
2
UCS
5
7
100
AcDbSymbolTable
70
0
0
ENDTAB
0
TABLE
2
APPID
5
9
100
AcDbSymbolTable
70
2
0
APPID
5
12
100
AcDbSymbolTableRecord
100
AcDbRegAppTableRecord
2
ACAD
70
0
0
ENDTAB
0
TABLE
2
DIMSTYLE
5
A
100
AcDbSymbolTable
70
1
0
ENDTAB
0
TABLE
2
BLOCK_RECORD
5
1
100
AcDbSymbolTable
70
1
0
BLOCK_RECORD
5
1F
100
AcDbSymbolTableRecord
100
AcDbBlockTableRecord
2
*MODEL_SPACE
0
BLOCK_RECORD
5
1B
100
AcDbSymbolTableRecord
100
AcDbBlockTableRecord
2
*PAPER_SPACE
0
ENDTAB
0
ENDSEC
0
SECTION
2
BLOCKS
0
BLOCK
5
20
100
AcDbEntity
100
AcDbBlockBegin
2
*MODEL_SPACE
0
ENDBLK
5
21
100
AcDbEntity
100
AcDbBlockEnd
0
BLOCK
5
1C
100
AcDbEntity
100
AcDbBlockBegin
2
*PAPER_SPACE
0
ENDBLK
5
1D
100
AcDbEntity
100
AcDbBlockEnd
0
ENDSEC
0
SECTION
2
ENTITIES
0
LINE
5
100
100
AcDbEntity
8
0
100
AcDbLine
10
-1.7763568394002505e-14
20
92.606349296080992
30
0
11
-1.7763568394002505e-14
21
-92.606349296080992
31
0
0
LINE
5
101
100
AcDbEntity
8
0
100
AcDbLine
10
16.449747468305898
20
-168.46689901075911
30
0
11
-0.44974746830704238
21
-168.46689901075916
31
0
0
SPLINE
5
102
100
AcDbEntity
8
0
100
AcDbSpline
70
0
71
5
72
14
73
8
74
0
42
0.000000001
43
0.0000000001
44
0.0000000001
40
-1
40
-1
40
-1
40
-1
40
-1
40
-1
40
-0.5
40
-0.5
40
0
40
0
40
0
40
0
40
0
40
0
10
-0.4497474683070557
20
-168.46689901075916
30
0
10
-2.9697474683070446
20
-168.46689901075919
30
0
10
-5.4897474683070158
20
-168.46689901075919
30
0
10
-10.049747468306993
20
-168.38689901075918
30
0
10
-12.369747468307022
20
-166.06689901075919
30
0
10
-12.449747468307049
20
-161.50689901075921
30
0
10
-12.449747468307049
20
-158.98689901075926
30
0
10
-12.449747468307084
20
-156.46689901075925
30
0
0
LINE
5
103
100
AcDbEntity
8
0
100
AcDbLine
10
-12.449747468307084
20
-156.46689901075928
30
0
11
-12.449747468307253
21
-130.78279438332095
31
0
0
SPLINE
5
104
100
AcDbEntity
8
0
100
AcDbSpline
70
0
71
5
72
14
73
8
74
0
42
0.000000001
43
0.0000000001
44
0.0000000001
40
-1
40
-1
40
-1
40
-1
40
-1
40
-1
40
-0.50000000000000067
40
-0.50000000000000067
40
-1.4432899320127035e-15
40
-1.4432899320127035e-15
40
-1.4432899320127035e-15
40
-1.4432899320127035e-15
40
-1.4432899320127035e-15
40
-1.4432899320127035e-15
10
-12.449747468307262
20
-130.78279438332095
30
0
10
-12.449747468307262
20
-130.10756241839454
30
0
10
-12.449747468307262
20
-129.43233045346813
30
0
10
-12.439029500610044
20
-128.19191807137662
30
0
10
-12.128208437389905
20
-127.03191807137662
30
0
10
-11.517284278646986
20
-125.95233045346804
30
0
10
-11.179668296183731
20
-125.36756241839448
30
0
10
-10.842052313720512
20
-124.78279438332088
30
0
0
LINE
5
105
100
AcDbEntity
8
0
100
AcDbLine
10
-10.84205231372051
20
-124.78279438332089
30
0
11
-6.6987298107779916
21
-117.60634929608094
31
0
0
SPLINE
5
106
100
AcDbEntity
8
0
100
AcDbSpline
70
0
71
5
72
14
73
8
74
0
42
0.000000001
43
0.0000000001
44
0.0000000001
40
-1
40
-1
40
-1
40
-1
40
-1
40
-1
40
-0.5
40
-0.5
40
0
40
0
40
0
40
0
40
0
40
0
10
-6.6987298107780546
20
-117.60634929608091
30
0
10
-5.2919965505146571
20
-115.16981581660774
30
0
10
-3.8852632902512774
20
-112.73328233713455
30
0
10
-1.3397459621556429
20
-108.23500059584876
30
0
10
-0.044658198738520838
20
-103.40166726251542
30
0
10
1.7763568394002505e-14
20
-98.233282337134469
30
0
10
1.7763568394002505e-14
20
-95.419815816607709
30
0
10
1.7763568394002505e-14
20
-92.606349296080992
30
0
0
SPLINE
5
107
100
AcDbEntity
8
0
100
AcDbSpline
70
0
71
5
72
14
73
8
74
0
42
0.000000001
43
0.0000000001
44
0.0000000001
40
-0.99999999999999989
40
-0.99999999999999989
40
-0.99999999999999989
40
-0.99999999999999989
40
-0.99999999999999989
40
-0.99999999999999989
40
-0.49999999999999994
40
-0.49999999999999994
40
0
40
0
40
0
40
0
40
0
40
0
10
-1.7763568394002505e-14
20
92.606349296080992
30
0
10
0
20
93.366157884416964
30
0
10
1.7763568394002505e-14
20
94.125966472752921
30
0
10
-0.0020379382074331431
20
95.42034592293021
30
0
10
-0.36509227538386924
20
96.813912287588707
30
0
10
-1.2986093592262904
20
98.243515116817377
30
0
10
-1.6847231738485213
20
98.764301177956142
30
0
10
-2.0000000000000284
20
99.239598876791888
30
0
0
ARC
5
108
100
AcDbEntity
8
0
100
AcDbCircle
10
7.9999999999999316
20
105.87284845750276
30
0
40
12.000000000000025
210
0
220
0
230
1
100
AcDbArc
50
-33.557309761920926
51
213.55730976192103
0
SPLINE
5
109
100
AcDbEntity
8
0
100
AcDbSpline
70
0
71
5
72
14
73
8
74
0
42
0.000000001
43
0.0000000001
44
0.0000000001
40
-1
40
-1
40
-1
40
-1
40
-1
40
-1
40
-0.5
40
-0.5
40
0
40
0
40
0
40
0
40
0
40
0
10
17.999999999999936
20
99.239598876791945
30
0
10
17.684723173848447
20
98.764301177956213
30
0
10
17.298609359226251
20
98.243515116817434
30
0
10
16.365092275383759
20
96.813912287588806
30
0
10
16.002037938207394
20
95.420345922930323
30
0
10
15.99999999999989
20
94.125966472753049
30
0
10
15.99999999999989
20
93.366157884417078
30
0
10
15.999999999999925
20
92.606349296081106
30
0
0
LINE
5
110
100
AcDbEntity
8
0
100
AcDbLine
10
15.999999999999961
20
-92.606349296083167
30
0
11
15.999999999999925
21
92.606349296081092
31
0
0
SPLINE
5
111
100
AcDbEntity
8
0
100
AcDbSpline
70
0
71
5
72
14
73
8
74
0
42
0.000000001
43
0.0000000001
44
0.0000000001
40
-1
40
-1
40
-1
40
-1
40
-1
40
-1
40
-0.50000000000000022
40
-0.50000000000000022
40
-5.5511151231257827e-16
40
-5.5511151231257827e-16
40
-5.5511151231257827e-16
40
-5.5511151231257827e-16
40
-5.5511151231257827e-16
40
-5.5511151231257827e-16
10
15.999999999999961
20
-92.606349296083167
30
0
10
15.999999999999961
20
-95.419815816609983
30
0
10
15.999999999999961
20
-98.233282337136757
30
0
10
16.0446581987385
20
-103.40166726251772
30
0
10
17.339745962155586
20
-108.23500059585102
30
0
10
19.885263290251221
20
-112.73328233713667
30
0
10
21.291996550514636
20
-115.16981581660991
30
0
10
22.698729810778051
20
-117.60634929608317
30
0
0
LINE
5
112
100
AcDbEntity
8
0
100
AcDbLine
10
22.698729810778048
20
-117.60634929608317
30
0
11
26.842052313719304
21
-124.78279438332086
31
0
0
SPLINE
5
113
100
AcDbEntity
8
0
100
AcDbSpline
70
0
71
5
72
14
73
8
74
0
42
0.000000001
43
0.0000000001
44
0.0000000001
40
-1
40
-1
40
-1
40
-1
40
-1
40
-1
40
-0.5
40
-0.5
40
0
40
0
40
0
40
0
40
0
40
0
10
26.842052313719282
20
-124.78279438332086
30
0
10
27.17966829618252
20
-125.36756241839443
30
0
10
27.517284278645722
20
-125.95233045346801
30
0
10
28.128208437388675
20
-127.03191807137657
30
0
10
28.439029500608797
20
-128.19191807137659
30
0
10
28.449747468306068
20
-129.43233045346807
30
0
10
28.449747468306033
20
-130.10756241839448
30
0
10
28.449747468306033
20
-130.78279438332092
30
0
0
LINE
5
114
100
AcDbEntity
8
0
100
AcDbLine
10
28.449747468306029
20
-130.78279438332092
30
0
11
28.44974746830588
21
-156.46689901075925
31
0
0
SPLINE
5
115
100
AcDbEntity
8
0
100
AcDbSpline
70
0
71
5
72
14
73
8
74
0
42
0.000000001
43
0.0000000001
44
0.0000000001
40
-1
40
-1
40
-1
40
-1
40
-1
40
-1
40
-0.5
40
-0.5
40
0
40
0
40
0
40
0
40
0
40
0
10
28.449747468305855
20
-156.46689901075919
30
0
10
28.449747468305855
20
-158.98689901075917
30
0
10
28.449747468305819
20
-161.50689901075913
30
0
10
28.369747468305828
20
-166.06689901075919
30
0
10
26.049747468305835
20
-168.38689901075912
30
0
10
21.489747468305858
20
-168.46689901075911
30
0
10
18.969747468305886
20
-168.46689901075911
30
0
10
16.449747468305898
20
-168.46689901075911
30
0
0
CIRCLE
5
116
100
AcDbEntity
8
0
100
AcDbCircle
10
7.9999999999999316
20
105.87284845750276
30
0
40
4.0999999999999996
210
0
220
-0
230
1
0
CIRCLE
5
117
100
AcDbEntity
8
0
100
AcDbCircle
10
7.9999999999988525
20
114.8728484575026
30
0
40
1.25
210
0
220
-0
230
1
0
CIRCLE
5
118
100
AcDbEntity
8
0
100
AcDbCircle
10
0.20577136594011947
20
101.37284845750202
30
0
40
1.25
210
0
220
-0
230
1
0
CIRCLE
5
119
100
AcDbEntity
8
0
100
AcDbCircle
10
15.794228634060428
20
101.37284845750355
30
0
40
1.25
210
0
220
-0
230
1
0
CIRCLE
5
120
100
AcDbEntity
8
0
100
AcDbCircle
10
7.999999999998515
20
63.557848457474378
30
0
40
1.25
210
0
220
-0
230
1
0
CIRCLE
5
121
100
AcDbEntity
8
0
100
AcDbCircle
10
7.9999999999995275
20
21.242848457488392
30
0
40
1.25
210
0
220
-0
230
1
0
CIRCLE
5
122
100
AcDbEntity
8
0
100
AcDbCircle
10
8.0000000000013749
20
-21.072151542497011
30
0
40
1.25
210
0
220
-0
230
1
0
CIRCLE
5
123
100
AcDbEntity
8
0
100
AcDbCircle
10
8.0000000000010196
20
-63.387151542482663
30
0
40
1.25
210
0
220
-0
230
1
0
CIRCLE
5
124
100
AcDbEntity
8
0
100
AcDbCircle
10
8.0000000000007709
20
-105.7021515424687
30
0
40
1.25
210
0
220
-0
230
1
0
CIRCLE
5
125
100
AcDbEntity
8
0
100
AcDbCircle
10
-7.5000000000007994
20
-132.5171515424538
30
0
40
1.6999999999999995
210
0
220
-0
230
1
0
CIRCLE
5
126
100
AcDbEntity
8
0
100
AcDbCircle
10
-7.5000000000012257
20
-163.51715154245366
30
0
40
1.6999999999999995
210
0
220
-0
230
1
0
CIRCLE
5
127
100
AcDbEntity
8
0
100
AcDbCircle
10
23.499999999999943
20
-163.51715154245284
30
0
40
1.6999999999999995
210
0
220
-0
230
1
0
CIRCLE
5
128
100
AcDbEntity
8
0
100
AcDbCircle
10
23.499999999999108
20
-132.51715154245372
30
0
40
1.6999999999999995
210
0
220
-0
230
1
0
CIRCLE
5
129
100
AcDbEntity
8
0
100
AcDbCircle
10
7.9999999999992788
20
-148.01715154245395
30
0
40
11.100000000003586
210
0
220
-0
230
1
0
LINE
5
130
100
AcDbEntity
8
0
100
AcDbLine
10
43.180000000000035
20
106.75966023841825
30
0
11
43.180000000000049
21
-86.439660238418284
31
0
0
LINE
5
131
100
AcDbEntity
8
0
100
AcDbLine
10
27.179999999911164
20
-86.439660238552392
30
0
11
27.179999999917026
21
106.75966023851831
31
0
0
SPLINE
5
132
100
AcDbEntity
8
0
100
AcDbSpline
70
0
71
5
72
14
73
8
74
0
42
0.000000001
43
0.0000000001
44
0.0000000001
40
0
40
0
40
0
40
0
40
0
40
0
40
0.5
40
0.5
40
1
40
1
40
1
40
1
40
1
40
1
10
27.179999999917026
20
106.75966023851831
30
0
10
27.179999999917133
20
110.50591912840775
30
0
10
27.179999999917239
20
114.2521780182972
30
0
10
27.178318820979666
20
120.41794081912172
30
0
10
25.248398088794364
20
127.32401023629421
30
0
10
19.429203122687202
20
134.47918666286799
30
0
10
17.311630920371091
20
136.6680509926598
30
0
10
15.887794877073294
20
138.4094093014744
30
0
0
ARC
5
133
100
AcDbEntity
8
0
100
AcDbCircle
10
35.180000000000042
20
154.18384060011763
30
0
40
24.920310216782958
210
0
220
0
230
1
100
AcDbArc
50
-39.271434106166275
51
219.27143410606595
0
SPLINE
5
134
100
AcDbEntity
8
0
100
AcDbSpline
70
0
71
5
72
14
73
8
74
0
42
0.000000001
43
0.0000000001
44
0.0000000001
40
0
40
0
40
0
40
0
40
0
40
0
40
0.5
40
0.5
40
1
40
1
40
1
40
1
40
1
40
1
10
54.472205122899155
20
138.4094093014406
30
0
10
53.048369079594586
20
136.66805099262399
30
0
10
50.930796877268278
20
134.47918666283022
30
0
10
45.111601911132482
20
127.32401023624658
30
0
10
43.181681178937779
20
120.41794081905877
30
0
10
43.180000000000035
20
114.25217801821761
30
0
10
43.180000000000035
20
110.50591912831793
30
0
10
43.180000000000035
20
106.75966023841825
30
0
0
SPLINE
5
135
100
AcDbEntity
8
0
100
AcDbSpline
70
0
71
5
72
14
73
8
74
0
42
0.000000001
43
0.0000000001
44
0.0000000001
40
-0.99999999999999978
40
-0.99999999999999978
40
-0.99999999999999978
40
-0.99999999999999978
40
-0.99999999999999978
40
-0.99999999999999978
40
-0.49999999999999989
40
-0.49999999999999989
40
0
40
0
40
0
40
0
40
0
40
0
10
43.179999999999993
20
-86.439660238418156
30
0
10
43.180000000000014
20
-87.199468826754156
30
0
10
43.179999999999993
20
-87.959277415090114
30
0
10
43.182037938207394
20
-89.253656865267317
30
0
10
43.54509227538383
20
-90.6472232299258
30
0
10
44.478609359226326
20
-92.076826059154484
30
0
10
44.864723173848532
20
-92.597612120293249
30
0
10
45.180000000000007
20
-93.072909819128995
30
0
0
ARC
5
136
100
AcDbEntity
8
0
100
AcDbCircle
10
35.179999999999964
20
-99.706159399839791
30
0
40
12.000000000000012
210
0
220
0
230
1
100
AcDbArc
50
-213.55730976153706
51
33.557309761920529
0
SPLINE
5
137
100
AcDbEntity
8
0
100
AcDbSpline
70
0
71
5
72
14
73
8
74
0
42
0.000000001
43
0.0000000001
44
0.0000000001
40
-1
40
-1
40
-1
40
-1
40
-1
40
-1
40
-0.5
40
-0.5
40
0
40
0
40
0
40
0
40
0
40
0
10
25.179999999955545
20
-93.0729098191959
30
0
10
25.495276826100106
20
-92.597612120363692
30
0
10
25.881390640713775
20
-92.076826059228523
30
0
10
26.814907724535306
20
-90.647223230011278
30
0
10
27.177962061703695
20
-89.253656865367475
30
0
10
27.179999999911075
20
-87.959277415205861
30
0
10
27.179999999911129
20
-87.199468826879098
30
0
10
27.179999999911146
20
-86.439660238552392
30
0
0
CIRCLE
5
138
100
AcDbEntity
8
0
100
AcDbCircle
10
35.180000000000042
20
154.18384060011763
30
0
40
4.0999999999999996
210
0
220
0
230
1
0
CIRCLE
5
139
100
AcDbEntity
8
0
100
AcDbCircle
10
35.179999999999964
20
-99.706159399839791
30
0
40
4.1000000000000005
210
0
220
-0
230
1
0
CIRCLE
5
140
100
AcDbEntity
8
0
100
AcDbCircle
10
35.179999999998884
20
-108.70615939983961
30
0
40
1.25
210
0
220
0
230
1
0
CIRCLE
5
141
100
AcDbEntity
8
0
100
AcDbCircle
10
27.385771365940172
20
-95.206159399839009
30
0
40
1.25
210
0
220
0
230
1
0
CIRCLE
5
142
100
AcDbEntity
8
0
100
AcDbCircle
10
42.974228634060481
20
-95.206159399840544
30
0
40
1.25
210
0
220
0
230
1
0
CIRCLE
5
143
100
AcDbEntity
8
0
100
AcDbCircle
10
35.179999999998572
20
-57.391159399811393
30
0
40
1.25
210
0
220
-0
230
1
0
CIRCLE
5
144
100
AcDbEntity
8
0
100
AcDbCircle
10
35.17999999999958
20
-15.076159399825402
30
0
40
1.25
210
0
220
-0
230
1
0
CIRCLE
5
145
100
AcDbEntity
8
0
100
AcDbCircle
10
35.180000000001414
20
27.23884060016001
30
0
40
1.25
210
0
220
-0
230
1
0
CIRCLE
5
146
100
AcDbEntity
8
0
100
AcDbCircle
10
35.180000000001058
20
69.553840600145662
30
0
40
1.25
210
0
220
-0
230
1
0
CIRCLE
5
147
100
AcDbEntity
8
0
100
AcDbCircle
10
35.180000000000803
20
111.8688406001317
30
0
40
1.25
210
0
220
-0
230
1
0
CIRCLE
5
148
100
AcDbEntity
8
0
100
AcDbCircle
10
19.679999999999254
20
138.68384060011681
30
0
40
1.25
210
0
220
0
230
1
0
CIRCLE
5
149
100
AcDbEntity
8
0
100
AcDbCircle
10
19.679999999999538
20
169.68384060011732
30
0
40
1.25
210
0
220
0
230
1
0
CIRCLE
5
150
100
AcDbEntity
8
0
100
AcDbCircle
10
50.67999999999914
20
138.68384060011675
30
0
40
1.25
210
0
220
0
230
1
0
CIRCLE
5
151
100
AcDbEntity
8
0
100
AcDbCircle
10
50.679999999999538
20
169.68384060011726
30
0
40
1.25
210
0
220
0
230
1
0
ENDSEC
0
SECTION
2
OBJECTS
0
DICTIONARY
5
C
100
AcDbDictionary
3
ACAD_GROUP
350
D
3
ACAD_MLINESTYLE
350
17
0
DICTIONARY
5
D
100
AcDbDictionary
0
DICTIONARY
5
1A
330
C
100
AcDbDictionary
0
DICTIONARY
5
17
100
AcDbDictionary
0
ENDSEC
0
EOF
